<mxfile host="app.diagrams.net" modified="2024-07-23T09:54:59.547Z" agent="Mozilla/5.0 (Windows NT 10.0; Win64; x64) AppleWebKit/537.36 (KHTML, like Gecko) Chrome/126.0.0.0 Safari/537.36" etag="LigkQis_dUP_iIkJwixK" version="24.7.1" type="device">
  <diagram name="Page-1" id="CEx8q3jwLbHcBo9PbhBw">
    <mxGraphModel dx="2043" dy="1786" grid="1" gridSize="10" guides="1" tooltips="1" connect="1" arrows="1" fold="1" page="1" pageScale="1" pageWidth="850" pageHeight="1100" math="0" shadow="0">
      <root>
        <mxCell id="0" />
        <mxCell id="1" parent="0" />
        <mxCell id="7FVs_-6Pm-w2oeAKyXiz-1" value="STAFF SCHEDULE" style="rounded=0;whiteSpace=wrap;html=1;strokeWidth=4;" vertex="1" parent="1">
          <mxGeometry x="335" width="210" height="90" as="geometry" />
        </mxCell>
        <mxCell id="7FVs_-6Pm-w2oeAKyXiz-3" value="has" style="rhombus;whiteSpace=wrap;html=1;" vertex="1" parent="1">
          <mxGeometry x="400" y="170" width="80" height="80" as="geometry" />
        </mxCell>
        <mxCell id="7FVs_-6Pm-w2oeAKyXiz-4" value="USER" style="whiteSpace=wrap;html=1;aspect=fixed;" vertex="1" parent="1">
          <mxGeometry x="160" y="60" width="80" height="80" as="geometry" />
        </mxCell>
        <mxCell id="7FVs_-6Pm-w2oeAKyXiz-5" value="EMPLOYEE" style="whiteSpace=wrap;html=1;aspect=fixed;" vertex="1" parent="1">
          <mxGeometry x="130" y="290" width="80" height="80" as="geometry" />
        </mxCell>
        <mxCell id="7FVs_-6Pm-w2oeAKyXiz-6" value="SHIFT" style="whiteSpace=wrap;html=1;aspect=fixed;" vertex="1" parent="1">
          <mxGeometry x="400" y="340" width="80" height="80" as="geometry" />
        </mxCell>
        <mxCell id="7FVs_-6Pm-w2oeAKyXiz-7" value="SCHEDULE" style="whiteSpace=wrap;html=1;aspect=fixed;" vertex="1" parent="1">
          <mxGeometry x="690" y="290" width="80" height="80" as="geometry" />
        </mxCell>
        <mxCell id="7FVs_-6Pm-w2oeAKyXiz-8" value="SWAP&amp;nbsp;&lt;div&gt;REQUEST&lt;/div&gt;" style="whiteSpace=wrap;html=1;aspect=fixed;" vertex="1" parent="1">
          <mxGeometry x="590" y="60" width="80" height="80" as="geometry" />
        </mxCell>
        <mxCell id="7FVs_-6Pm-w2oeAKyXiz-9" value="user ID" style="ellipse;whiteSpace=wrap;html=1;" vertex="1" parent="1">
          <mxGeometry x="40" y="180" width="105" height="70" as="geometry" />
        </mxCell>
        <mxCell id="7FVs_-6Pm-w2oeAKyXiz-10" value="password" style="ellipse;whiteSpace=wrap;html=1;" vertex="1" parent="1">
          <mxGeometry x="-80" y="80" width="105" height="80" as="geometry" />
        </mxCell>
        <mxCell id="7FVs_-6Pm-w2oeAKyXiz-11" value="username" style="ellipse;whiteSpace=wrap;html=1;" vertex="1" parent="1">
          <mxGeometry x="150" y="-80" width="100" height="70" as="geometry" />
        </mxCell>
        <mxCell id="7FVs_-6Pm-w2oeAKyXiz-12" value="role ID" style="ellipse;whiteSpace=wrap;html=1;" vertex="1" parent="1">
          <mxGeometry x="-10" y="-30" width="100" height="70" as="geometry" />
        </mxCell>
        <mxCell id="7FVs_-6Pm-w2oeAKyXiz-13" value="employee ID" style="ellipse;whiteSpace=wrap;html=1;" vertex="1" parent="1">
          <mxGeometry x="-50" y="260" width="100" height="70" as="geometry" />
        </mxCell>
        <mxCell id="7FVs_-6Pm-w2oeAKyXiz-14" value="name" style="ellipse;whiteSpace=wrap;html=1;" vertex="1" parent="1">
          <mxGeometry x="-85" y="370" width="100" height="70" as="geometry" />
        </mxCell>
        <mxCell id="7FVs_-6Pm-w2oeAKyXiz-15" value="contact" style="ellipse;whiteSpace=wrap;html=1;" vertex="1" parent="1">
          <mxGeometry x="50" y="430" width="100" height="70" as="geometry" />
        </mxCell>
        <mxCell id="7FVs_-6Pm-w2oeAKyXiz-16" value="" style="endArrow=classic;html=1;rounded=0;entryX=0.5;entryY=0;entryDx=0;entryDy=0;exitX=0.5;exitY=1;exitDx=0;exitDy=0;" edge="1" parent="1" source="7FVs_-6Pm-w2oeAKyXiz-1" target="7FVs_-6Pm-w2oeAKyXiz-3">
          <mxGeometry width="50" height="50" relative="1" as="geometry">
            <mxPoint x="440" y="100" as="sourcePoint" />
            <mxPoint x="460" y="210" as="targetPoint" />
          </mxGeometry>
        </mxCell>
        <mxCell id="7FVs_-6Pm-w2oeAKyXiz-18" value="" style="endArrow=classic;html=1;rounded=0;entryX=0;entryY=1;entryDx=0;entryDy=0;" edge="1" parent="1" target="7FVs_-6Pm-w2oeAKyXiz-8">
          <mxGeometry width="50" height="50" relative="1" as="geometry">
            <mxPoint x="500" y="140" as="sourcePoint" />
            <mxPoint x="460" y="210" as="targetPoint" />
          </mxGeometry>
        </mxCell>
        <mxCell id="7FVs_-6Pm-w2oeAKyXiz-19" value="" style="endArrow=classic;html=1;rounded=0;" edge="1" parent="1">
          <mxGeometry width="50" height="50" relative="1" as="geometry">
            <mxPoint x="400" y="290" as="sourcePoint" />
            <mxPoint x="210" y="290" as="targetPoint" />
          </mxGeometry>
        </mxCell>
        <mxCell id="7FVs_-6Pm-w2oeAKyXiz-20" value="" style="endArrow=classic;html=1;rounded=0;entryX=1;entryY=1;entryDx=0;entryDy=0;" edge="1" parent="1" target="7FVs_-6Pm-w2oeAKyXiz-4">
          <mxGeometry width="50" height="50" relative="1" as="geometry">
            <mxPoint x="380" y="140" as="sourcePoint" />
            <mxPoint x="260" y="140" as="targetPoint" />
          </mxGeometry>
        </mxCell>
        <mxCell id="7FVs_-6Pm-w2oeAKyXiz-21" value="" style="endArrow=classic;html=1;rounded=0;entryX=0;entryY=0;entryDx=0;entryDy=0;" edge="1" parent="1" target="7FVs_-6Pm-w2oeAKyXiz-7">
          <mxGeometry width="50" height="50" relative="1" as="geometry">
            <mxPoint x="480" y="290" as="sourcePoint" />
            <mxPoint x="460" y="210" as="targetPoint" />
          </mxGeometry>
        </mxCell>
        <mxCell id="7FVs_-6Pm-w2oeAKyXiz-22" value="" style="endArrow=classic;html=1;rounded=0;exitX=0.5;exitY=1;exitDx=0;exitDy=0;entryX=0.5;entryY=0;entryDx=0;entryDy=0;" edge="1" parent="1" source="7FVs_-6Pm-w2oeAKyXiz-3" target="7FVs_-6Pm-w2oeAKyXiz-6">
          <mxGeometry width="50" height="50" relative="1" as="geometry">
            <mxPoint x="410" y="260" as="sourcePoint" />
            <mxPoint x="460" y="210" as="targetPoint" />
          </mxGeometry>
        </mxCell>
        <mxCell id="7FVs_-6Pm-w2oeAKyXiz-23" value="availability" style="ellipse;whiteSpace=wrap;html=1;" vertex="1" parent="1">
          <mxGeometry x="220" y="410" width="100" height="70" as="geometry" />
        </mxCell>
        <mxCell id="7FVs_-6Pm-w2oeAKyXiz-24" value="start time" style="ellipse;whiteSpace=wrap;html=1;" vertex="1" parent="1">
          <mxGeometry x="325" y="480" width="100" height="70" as="geometry" />
        </mxCell>
        <mxCell id="7FVs_-6Pm-w2oeAKyXiz-25" value="end time" style="ellipse;whiteSpace=wrap;html=1;" vertex="1" parent="1">
          <mxGeometry x="500" y="480" width="100" height="70" as="geometry" />
        </mxCell>
        <mxCell id="7FVs_-6Pm-w2oeAKyXiz-26" value="shift ID&amp;nbsp;" style="ellipse;whiteSpace=wrap;html=1;" vertex="1" parent="1">
          <mxGeometry x="560" y="350" width="100" height="70" as="geometry" />
        </mxCell>
        <mxCell id="7FVs_-6Pm-w2oeAKyXiz-27" value="request ID" style="ellipse;whiteSpace=wrap;html=1;" vertex="1" parent="1">
          <mxGeometry x="710" y="140" width="110" height="80" as="geometry" />
        </mxCell>
        <mxCell id="7FVs_-6Pm-w2oeAKyXiz-28" value="schedule ID" style="ellipse;whiteSpace=wrap;html=1;" vertex="1" parent="1">
          <mxGeometry x="710" y="420" width="100" height="70" as="geometry" />
        </mxCell>
        <mxCell id="7FVs_-6Pm-w2oeAKyXiz-29" value="date" style="ellipse;whiteSpace=wrap;html=1;" vertex="1" parent="1">
          <mxGeometry x="830" y="295" width="110" height="70" as="geometry" />
        </mxCell>
        <mxCell id="7FVs_-6Pm-w2oeAKyXiz-30" value="initiator ID" style="ellipse;whiteSpace=wrap;html=1;" vertex="1" parent="1">
          <mxGeometry x="730" y="20" width="110" height="70" as="geometry" />
        </mxCell>
        <mxCell id="7FVs_-6Pm-w2oeAKyXiz-32" value="" style="endArrow=classic;html=1;rounded=0;exitX=0.5;exitY=0;exitDx=0;exitDy=0;entryX=0.5;entryY=1;entryDx=0;entryDy=0;" edge="1" parent="1" source="7FVs_-6Pm-w2oeAKyXiz-4" target="7FVs_-6Pm-w2oeAKyXiz-11">
          <mxGeometry width="50" height="50" relative="1" as="geometry">
            <mxPoint x="400" y="250" as="sourcePoint" />
            <mxPoint x="450" y="200" as="targetPoint" />
          </mxGeometry>
        </mxCell>
        <mxCell id="7FVs_-6Pm-w2oeAKyXiz-33" value="" style="endArrow=classic;html=1;rounded=0;entryX=1;entryY=1;entryDx=0;entryDy=0;exitX=0;exitY=0.25;exitDx=0;exitDy=0;" edge="1" parent="1" source="7FVs_-6Pm-w2oeAKyXiz-4" target="7FVs_-6Pm-w2oeAKyXiz-12">
          <mxGeometry width="50" height="50" relative="1" as="geometry">
            <mxPoint x="120" y="70" as="sourcePoint" />
            <mxPoint x="450" y="200" as="targetPoint" />
          </mxGeometry>
        </mxCell>
        <mxCell id="7FVs_-6Pm-w2oeAKyXiz-34" value="" style="endArrow=classic;html=1;rounded=0;entryX=1;entryY=0.5;entryDx=0;entryDy=0;exitX=0;exitY=0.75;exitDx=0;exitDy=0;" edge="1" parent="1" source="7FVs_-6Pm-w2oeAKyXiz-4" target="7FVs_-6Pm-w2oeAKyXiz-10">
          <mxGeometry width="50" height="50" relative="1" as="geometry">
            <mxPoint x="400" y="250" as="sourcePoint" />
            <mxPoint x="450" y="200" as="targetPoint" />
          </mxGeometry>
        </mxCell>
        <mxCell id="7FVs_-6Pm-w2oeAKyXiz-35" value="" style="endArrow=classic;html=1;rounded=0;entryX=0.954;entryY=0.218;entryDx=0;entryDy=0;entryPerimeter=0;exitX=0.5;exitY=1;exitDx=0;exitDy=0;" edge="1" parent="1" source="7FVs_-6Pm-w2oeAKyXiz-4" target="7FVs_-6Pm-w2oeAKyXiz-9">
          <mxGeometry width="50" height="50" relative="1" as="geometry">
            <mxPoint x="400" y="250" as="sourcePoint" />
            <mxPoint x="450" y="200" as="targetPoint" />
          </mxGeometry>
        </mxCell>
        <mxCell id="7FVs_-6Pm-w2oeAKyXiz-36" value="" style="endArrow=classic;html=1;rounded=0;exitX=0;exitY=0.25;exitDx=0;exitDy=0;entryX=1;entryY=0.5;entryDx=0;entryDy=0;" edge="1" parent="1" source="7FVs_-6Pm-w2oeAKyXiz-5" target="7FVs_-6Pm-w2oeAKyXiz-13">
          <mxGeometry width="50" height="50" relative="1" as="geometry">
            <mxPoint x="400" y="250" as="sourcePoint" />
            <mxPoint x="450" y="200" as="targetPoint" />
          </mxGeometry>
        </mxCell>
        <mxCell id="7FVs_-6Pm-w2oeAKyXiz-37" value="" style="endArrow=classic;html=1;rounded=0;exitX=0;exitY=0.75;exitDx=0;exitDy=0;entryX=1;entryY=0.5;entryDx=0;entryDy=0;" edge="1" parent="1" source="7FVs_-6Pm-w2oeAKyXiz-5" target="7FVs_-6Pm-w2oeAKyXiz-14">
          <mxGeometry width="50" height="50" relative="1" as="geometry">
            <mxPoint x="400" y="250" as="sourcePoint" />
            <mxPoint x="450" y="200" as="targetPoint" />
          </mxGeometry>
        </mxCell>
        <mxCell id="7FVs_-6Pm-w2oeAKyXiz-38" value="" style="endArrow=classic;html=1;rounded=0;exitX=0.5;exitY=1;exitDx=0;exitDy=0;" edge="1" parent="1" source="7FVs_-6Pm-w2oeAKyXiz-5" target="7FVs_-6Pm-w2oeAKyXiz-15">
          <mxGeometry width="50" height="50" relative="1" as="geometry">
            <mxPoint x="400" y="250" as="sourcePoint" />
            <mxPoint x="450" y="200" as="targetPoint" />
          </mxGeometry>
        </mxCell>
        <mxCell id="7FVs_-6Pm-w2oeAKyXiz-39" value="" style="endArrow=classic;html=1;rounded=0;exitX=1;exitY=1;exitDx=0;exitDy=0;entryX=0.5;entryY=0;entryDx=0;entryDy=0;" edge="1" parent="1" source="7FVs_-6Pm-w2oeAKyXiz-5" target="7FVs_-6Pm-w2oeAKyXiz-23">
          <mxGeometry width="50" height="50" relative="1" as="geometry">
            <mxPoint x="400" y="250" as="sourcePoint" />
            <mxPoint x="450" y="200" as="targetPoint" />
          </mxGeometry>
        </mxCell>
        <mxCell id="7FVs_-6Pm-w2oeAKyXiz-40" value="" style="endArrow=classic;html=1;rounded=0;exitX=0;exitY=1;exitDx=0;exitDy=0;entryX=0.589;entryY=-0.041;entryDx=0;entryDy=0;entryPerimeter=0;" edge="1" parent="1" source="7FVs_-6Pm-w2oeAKyXiz-6" target="7FVs_-6Pm-w2oeAKyXiz-24">
          <mxGeometry width="50" height="50" relative="1" as="geometry">
            <mxPoint x="400" y="250" as="sourcePoint" />
            <mxPoint x="450" y="200" as="targetPoint" />
          </mxGeometry>
        </mxCell>
        <mxCell id="7FVs_-6Pm-w2oeAKyXiz-41" value="" style="endArrow=classic;html=1;rounded=0;exitX=1;exitY=1;exitDx=0;exitDy=0;entryX=0.42;entryY=-0.041;entryDx=0;entryDy=0;entryPerimeter=0;" edge="1" parent="1" source="7FVs_-6Pm-w2oeAKyXiz-6" target="7FVs_-6Pm-w2oeAKyXiz-25">
          <mxGeometry width="50" height="50" relative="1" as="geometry">
            <mxPoint x="400" y="250" as="sourcePoint" />
            <mxPoint x="450" y="200" as="targetPoint" />
          </mxGeometry>
        </mxCell>
        <mxCell id="7FVs_-6Pm-w2oeAKyXiz-42" value="" style="endArrow=classic;html=1;rounded=0;exitX=1;exitY=0.5;exitDx=0;exitDy=0;entryX=-0.024;entryY=0.396;entryDx=0;entryDy=0;entryPerimeter=0;" edge="1" parent="1" source="7FVs_-6Pm-w2oeAKyXiz-6" target="7FVs_-6Pm-w2oeAKyXiz-26">
          <mxGeometry width="50" height="50" relative="1" as="geometry">
            <mxPoint x="400" y="250" as="sourcePoint" />
            <mxPoint x="450" y="200" as="targetPoint" />
          </mxGeometry>
        </mxCell>
        <mxCell id="7FVs_-6Pm-w2oeAKyXiz-43" value="" style="endArrow=classic;html=1;rounded=0;exitX=0.5;exitY=1;exitDx=0;exitDy=0;entryX=0.5;entryY=0;entryDx=0;entryDy=0;" edge="1" parent="1" source="7FVs_-6Pm-w2oeAKyXiz-7" target="7FVs_-6Pm-w2oeAKyXiz-28">
          <mxGeometry width="50" height="50" relative="1" as="geometry">
            <mxPoint x="400" y="250" as="sourcePoint" />
            <mxPoint x="450" y="200" as="targetPoint" />
          </mxGeometry>
        </mxCell>
        <mxCell id="7FVs_-6Pm-w2oeAKyXiz-44" value="" style="endArrow=classic;html=1;rounded=0;entryX=0;entryY=0.5;entryDx=0;entryDy=0;exitX=1;exitY=0.5;exitDx=0;exitDy=0;" edge="1" parent="1" source="7FVs_-6Pm-w2oeAKyXiz-7" target="7FVs_-6Pm-w2oeAKyXiz-29">
          <mxGeometry width="50" height="50" relative="1" as="geometry">
            <mxPoint x="780" y="300" as="sourcePoint" />
            <mxPoint x="450" y="200" as="targetPoint" />
          </mxGeometry>
        </mxCell>
        <mxCell id="7FVs_-6Pm-w2oeAKyXiz-46" value="" style="endArrow=classic;html=1;rounded=0;entryX=0;entryY=0.5;entryDx=0;entryDy=0;exitX=1;exitY=0.5;exitDx=0;exitDy=0;" edge="1" parent="1" source="7FVs_-6Pm-w2oeAKyXiz-8" target="7FVs_-6Pm-w2oeAKyXiz-30">
          <mxGeometry width="50" height="50" relative="1" as="geometry">
            <mxPoint x="400" y="250" as="sourcePoint" />
            <mxPoint x="450" y="200" as="targetPoint" />
          </mxGeometry>
        </mxCell>
        <mxCell id="7FVs_-6Pm-w2oeAKyXiz-48" value="" style="endArrow=classic;html=1;rounded=0;exitX=0.5;exitY=1;exitDx=0;exitDy=0;entryX=0;entryY=0.5;entryDx=0;entryDy=0;" edge="1" parent="1" source="7FVs_-6Pm-w2oeAKyXiz-8" target="7FVs_-6Pm-w2oeAKyXiz-27">
          <mxGeometry width="50" height="50" relative="1" as="geometry">
            <mxPoint x="400" y="250" as="sourcePoint" />
            <mxPoint x="450" y="200" as="targetPoint" />
          </mxGeometry>
        </mxCell>
        <mxCell id="7FVs_-6Pm-w2oeAKyXiz-49" value="acceptor ID" style="ellipse;whiteSpace=wrap;html=1;" vertex="1" parent="1">
          <mxGeometry x="580" y="-70" width="100" height="70" as="geometry" />
        </mxCell>
        <mxCell id="7FVs_-6Pm-w2oeAKyXiz-50" value="" style="endArrow=none;html=1;rounded=0;entryX=1;entryY=0;entryDx=0;entryDy=0;" edge="1" parent="1" target="7FVs_-6Pm-w2oeAKyXiz-3">
          <mxGeometry width="50" height="50" relative="1" as="geometry">
            <mxPoint x="500" y="140" as="sourcePoint" />
            <mxPoint x="450" y="200" as="targetPoint" />
          </mxGeometry>
        </mxCell>
        <mxCell id="7FVs_-6Pm-w2oeAKyXiz-51" value="" style="endArrow=classic;html=1;rounded=0;entryX=0.5;entryY=1;entryDx=0;entryDy=0;exitX=0.5;exitY=0;exitDx=0;exitDy=0;" edge="1" parent="1" source="7FVs_-6Pm-w2oeAKyXiz-8" target="7FVs_-6Pm-w2oeAKyXiz-49">
          <mxGeometry width="50" height="50" relative="1" as="geometry">
            <mxPoint x="400" y="250" as="sourcePoint" />
            <mxPoint x="450" y="200" as="targetPoint" />
          </mxGeometry>
        </mxCell>
        <mxCell id="7FVs_-6Pm-w2oeAKyXiz-52" value="" style="endArrow=none;html=1;rounded=0;entryX=1;entryY=0.5;entryDx=0;entryDy=0;" edge="1" parent="1" target="7FVs_-6Pm-w2oeAKyXiz-3">
          <mxGeometry width="50" height="50" relative="1" as="geometry">
            <mxPoint x="480" y="290" as="sourcePoint" />
            <mxPoint x="450" y="260" as="targetPoint" />
          </mxGeometry>
        </mxCell>
        <mxCell id="7FVs_-6Pm-w2oeAKyXiz-53" value="" style="endArrow=none;html=1;rounded=0;entryX=0;entryY=0.5;entryDx=0;entryDy=0;" edge="1" parent="1" target="7FVs_-6Pm-w2oeAKyXiz-3">
          <mxGeometry width="50" height="50" relative="1" as="geometry">
            <mxPoint x="400" y="290" as="sourcePoint" />
            <mxPoint x="450" y="260" as="targetPoint" />
          </mxGeometry>
        </mxCell>
        <mxCell id="7FVs_-6Pm-w2oeAKyXiz-54" value="" style="endArrow=none;html=1;rounded=0;exitX=0;exitY=0;exitDx=0;exitDy=0;" edge="1" parent="1" source="7FVs_-6Pm-w2oeAKyXiz-3">
          <mxGeometry width="50" height="50" relative="1" as="geometry">
            <mxPoint x="400" y="260" as="sourcePoint" />
            <mxPoint x="380" y="140" as="targetPoint" />
          </mxGeometry>
        </mxCell>
        <mxCell id="7FVs_-6Pm-w2oeAKyXiz-55" value="" style="endArrow=none;dashed=1;html=1;dashPattern=1 3;strokeWidth=2;rounded=0;exitX=1.014;exitY=0.37;exitDx=0;exitDy=0;exitPerimeter=0;entryX=0;entryY=0.5;entryDx=0;entryDy=0;" edge="1" parent="1" source="7FVs_-6Pm-w2oeAKyXiz-23" target="7FVs_-6Pm-w2oeAKyXiz-6">
          <mxGeometry width="50" height="50" relative="1" as="geometry">
            <mxPoint x="400" y="260" as="sourcePoint" />
            <mxPoint x="450" y="210" as="targetPoint" />
          </mxGeometry>
        </mxCell>
        <mxCell id="7FVs_-6Pm-w2oeAKyXiz-56" value="" style="endArrow=none;dashed=1;html=1;dashPattern=1 3;strokeWidth=2;rounded=0;exitX=0.5;exitY=1;exitDx=0;exitDy=0;entryX=0.5;entryY=0;entryDx=0;entryDy=0;" edge="1" parent="1" source="7FVs_-6Pm-w2oeAKyXiz-9" target="7FVs_-6Pm-w2oeAKyXiz-5">
          <mxGeometry width="50" height="50" relative="1" as="geometry">
            <mxPoint x="400" y="260" as="sourcePoint" />
            <mxPoint x="450" y="210" as="targetPoint" />
          </mxGeometry>
        </mxCell>
        <mxCell id="7FVs_-6Pm-w2oeAKyXiz-57" value="" style="endArrow=none;dashed=1;html=1;dashPattern=1 3;strokeWidth=2;rounded=0;entryX=0;entryY=0.5;entryDx=0;entryDy=0;exitX=1;exitY=0;exitDx=0;exitDy=0;" edge="1" parent="1" source="7FVs_-6Pm-w2oeAKyXiz-26" target="7FVs_-6Pm-w2oeAKyXiz-7">
          <mxGeometry width="50" height="50" relative="1" as="geometry">
            <mxPoint x="400" y="260" as="sourcePoint" />
            <mxPoint x="450" y="210" as="targetPoint" />
          </mxGeometry>
        </mxCell>
      </root>
    </mxGraphModel>
  </diagram>
</mxfile>
